<svg id="bccc8519-5f4b-4181-96a8-908ec80ba2e4" data-name="Container" xmlns="http://www.w3.org/2000/svg" viewBox="0 0 226.77 113.98">
  <defs>
    <style>
      .e2aa670d-07ae-4d33-8623-c91419a9401a {
        fill: #7ba440;
      }

      .bcd8e30e-49b1-4e4e-8e48-a68939cb7598 {
        fill: #c5db6f;
      }

      .a29efc4d-185f-4a67-93fb-0506b0491c96 {
        fill: #84b240;
      }

      .b14a8f89-4cb7-404e-ab35-c828cfc44d22 {
        fill: #f0e208;
      }

      .a25ecf29-0113-446c-a24c-b6b4092f0da2 {
        fill: #dcda20;
      }

      .fad3ed26-f7a3-44d5-8090-e57ec2a70147 {
        fill: #1d1c1a;
      }
    </style>
  </defs>
  <title>ziwi-logo</title>
  <path class="e2aa670d-07ae-4d33-8623-c91419a9401a" d="M102.17,28.07a53.54,53.54,0,0,0-75.35,76.07Z"/>
  <path class="e2aa670d-07ae-4d33-8623-c91419a9401a" d="M26.82,104.14l.75.72,75.34-76c-.24-.25-.48-.51-.74-.76Z"/>
  <path class="bcd8e30e-49b1-4e4e-8e48-a68939cb7598" d="M99.13,31.15A49.19,49.19,0,0,0,29.89,101Z"/>
  <path class="a29efc4d-185f-4a67-93fb-0506b0491c96" d="M28.49,81a2.46,2.46,0,0,0,1.62,4.33l.25,0a76.06,76.06,0,0,0,10.55-1.91A62.5,62.5,0,0,0,35.77,93.6a2.36,2.36,0,0,0-.05,1.55L92,38.3h-.19a2.69,2.69,0,0,0-.89.16A66,66,0,0,0,79.1,44.61c.33-2,.56-3.93.69-5.76a2.51,2.51,0,0,0-1.5-2.44,2.36,2.36,0,0,0-1-.2,2.5,2.5,0,0,0-1.83.81c-1.31,1.43-2.6,3-3.93,4.82a60.19,60.19,0,0,0-4.39-13.27,2.48,2.48,0,0,0-4.45,0,55.14,55.14,0,0,0-3.77,10.67,81.34,81.34,0,0,0-5.72-8.57,2.45,2.45,0,0,0-1.95-1,2.75,2.75,0,0,0-.9.16,2.5,2.5,0,0,0-1.58,2.5,86.9,86.9,0,0,0,1.92,12.17A64.58,64.58,0,0,0,39,38.47a2.58,2.58,0,0,0-.87-.16,2.48,2.48,0,0,0-2.31,3.35,66.76,66.76,0,0,0,7.28,13.6c-1.73-.16-3.33-.25-4.87-.25h-.12a2.48,2.48,0,0,0-1.65,4.33c.75.67,1.54,1.31,2.4,2a64.92,64.92,0,0,0-12.88,4.07,2.51,2.51,0,0,0-1.46,2.25,2.46,2.46,0,0,0,1.46,2.25,65.61,65.61,0,0,0,12.23,3.93A81.42,81.42,0,0,0,28.49,81Z"/>
  <path class="b14a8f89-4cb7-404e-ab35-c828cfc44d22" d="M74,56.47A13.54,13.54,0,0,0,55,75.71Z"/>
  <path class="a25ecf29-0113-446c-a24c-b6b4092f0da2" d="M56.92,73.75A10.78,10.78,0,0,1,72.09,58.44L76,54.52A16.3,16.3,0,0,0,53,77.67Z"/>
  <path class="fad3ed26-f7a3-44d5-8090-e57ec2a70147" d="M65.43,48.5c.9,0,1.63-3.41,1.63-4.49a1.65,1.65,0,1,0-3.25,0C63.81,45.09,64.54,48.5,65.43,48.5Z"/>
  <path class="fad3ed26-f7a3-44d5-8090-e57ec2a70147" d="M42.57,68.47c1.08,0,4.5-.73,4.5-1.62s-3.42-1.62-4.5-1.62a1.65,1.65,0,1,0,0,3.24Z"/>
  <path class="fad3ed26-f7a3-44d5-8090-e57ec2a70147" d="M48.54,49.9c.65-.63-1.25-3.54-2-4.31a1.64,1.64,0,1,0-2.28,2.29C45,48.63,47.92,50.52,48.54,49.9Z"/>
  <g>
    <path class="e2aa670d-07ae-4d33-8623-c91419a9401a" d="M103.08,98.83h22.25v5.31H95.13V99.36l21-27.88H95.45V66.1h28.83v4.6Z"/>
    <path class="e2aa670d-07ae-4d33-8623-c91419a9401a" d="M133.4,56a3.83,3.83,0,0,1,1-2.67,3.61,3.61,0,0,1,2.86-1.09,3.65,3.65,0,0,1,2.88,1.09,3.8,3.8,0,0,1,1,2.67,3.85,3.85,0,1,1-7.7,0Zm7,48.13h-6.5v-38h6.5Z"/>
    <path class="e2aa670d-07ae-4d33-8623-c91419a9401a" d="M185.24,95.17l7.31-29.07h6.5l-11.07,38H182.7l-9.24-28.83-9,28.83h-5.28l-11-38h6.46l7.49,28.47L171,66.1h5.24Z"/>
    <path class="e2aa670d-07ae-4d33-8623-c91419a9401a" d="M206.42,56a3.87,3.87,0,0,1,1-2.67,3.63,3.63,0,0,1,2.87-1.09,3.67,3.67,0,0,1,2.88,1.09,3.8,3.8,0,0,1,1,2.67,4,4,0,0,1-6.74,2.63A3.76,3.76,0,0,1,206.42,56Zm7,48.13h-6.51v-38h6.51Z"/>
  </g>
</svg>
