<svg id="a286c7f0-478f-4d22-a398-caf721de6d08" data-name="Container" xmlns="http://www.w3.org/2000/svg" viewBox="0 0 113.98 113.98">
  <defs>
    <style>
      .fd7d706e-c0c9-49bd-9f90-d7e491963398 {
        fill: #7ba440;
      }

      .a6624d06-de2a-445c-83cf-a665b8f903ac {
        fill: #c5db6f;
      }

      .b328c21f-8986-4951-9d9f-0e327483da0e {
        fill: #84b240;
      }

      .f61e23d8-3839-4b04-a4a2-66cc269874e8 {
        fill: #f0e208;
      }

      .f4343461-5f60-4db0-80c6-187256ec85cc {
        fill: #dcda20;
      }

      .baaf7295-7602-4e26-a3f2-02cefa8bc800 {
        fill: #1d1c1a;
      }
    </style>
  </defs>
  <title>ziwi-logo</title>
  <path class="fd7d706e-c0c9-49bd-9f90-d7e491963398" d="M102.17,28.07a53.54,53.54,0,0,0-75.35,76.07Z"/>
  <path class="fd7d706e-c0c9-49bd-9f90-d7e491963398" d="M26.82,104.14l.75.72,75.34-76c-.24-.25-.48-.51-.74-.76Z"/>
  <path class="a6624d06-de2a-445c-83cf-a665b8f903ac" d="M99.13,31.15A49.19,49.19,0,0,0,29.89,101Z"/>
  <path class="b328c21f-8986-4951-9d9f-0e327483da0e" d="M28.49,81a2.46,2.46,0,0,0,1.62,4.33l.25,0a76.06,76.06,0,0,0,10.55-1.91A62.5,62.5,0,0,0,35.77,93.6a2.36,2.36,0,0,0-.05,1.55L92,38.3h-.19a2.69,2.69,0,0,0-.89.16A66,66,0,0,0,79.1,44.61c.33-2,.56-3.93.69-5.76a2.51,2.51,0,0,0-1.5-2.44,2.36,2.36,0,0,0-1-.2,2.5,2.5,0,0,0-1.83.81c-1.31,1.43-2.6,3-3.93,4.82a60.19,60.19,0,0,0-4.39-13.27,2.48,2.48,0,0,0-4.45,0,55.14,55.14,0,0,0-3.77,10.67,81.34,81.34,0,0,0-5.72-8.57,2.45,2.45,0,0,0-1.95-1,2.75,2.75,0,0,0-.9.16,2.5,2.5,0,0,0-1.58,2.5,86.9,86.9,0,0,0,1.92,12.17A64.58,64.58,0,0,0,39,38.47a2.58,2.58,0,0,0-.87-.16,2.48,2.48,0,0,0-2.31,3.35,66.76,66.76,0,0,0,7.28,13.6c-1.73-.16-3.33-.25-4.87-.25h-.12a2.48,2.48,0,0,0-1.65,4.33c.75.67,1.54,1.31,2.4,2a64.92,64.92,0,0,0-12.88,4.07,2.51,2.51,0,0,0-1.46,2.25,2.46,2.46,0,0,0,1.46,2.25,65.61,65.61,0,0,0,12.23,3.93A81.42,81.42,0,0,0,28.49,81Z"/>
  <path class="f61e23d8-3839-4b04-a4a2-66cc269874e8" d="M74,56.47A13.54,13.54,0,0,0,55,75.71Z"/>
  <path class="f4343461-5f60-4db0-80c6-187256ec85cc" d="M56.92,73.75A10.78,10.78,0,0,1,72.09,58.44L76,54.52A16.3,16.3,0,0,0,53,77.67Z"/>
  <path class="baaf7295-7602-4e26-a3f2-02cefa8bc800" d="M65.43,48.5c.9,0,1.63-3.41,1.63-4.49a1.65,1.65,0,1,0-3.25,0C63.81,45.09,64.54,48.5,65.43,48.5Z"/>
  <path class="baaf7295-7602-4e26-a3f2-02cefa8bc800" d="M42.57,68.47c1.08,0,4.5-.73,4.5-1.62s-3.42-1.62-4.5-1.62a1.65,1.65,0,1,0,0,3.24Z"/>
  <path class="baaf7295-7602-4e26-a3f2-02cefa8bc800" d="M48.54,49.9c.65-.63-1.25-3.54-2-4.31a1.64,1.64,0,1,0-2.28,2.29C45,48.63,47.92,50.52,48.54,49.9Z"/>
</svg>
